<svg xmlns="http://www.w3.org/2000/svg" xmlns:xlink="http://www.w3.org/1999/xlink" width="24" height="24" viewBox="0 0 24 24"><defs><filter id="a" x="1" y="2" width="22" height="22" filterUnits="userSpaceOnUse"><feOffset dy="1" input="SourceAlpha"/><feGaussianBlur stdDeviation="1" result="b"/><feFlood flood-opacity="0.42"/><feComposite operator="in" in2="b"/><feComposite in="SourceGraphic"/></filter></defs><g transform="translate(-640 -241)"><rect width="24" height="24" rx="12" transform="translate(640 241)" fill="#2962ff"/><g transform="matrix(1, 0, 0, 1, 640, 241)" filter="url(#a)"><path d="M13.667,8.333H8.333v5.333h5.333Zm-1.778,3.556H10.111V10.111h1.778ZM19,10.111V8.333H17.222V6.556a1.783,1.783,0,0,0-1.778-1.778H13.667V3H11.889V4.778H10.111V3H8.333V4.778H6.556A1.783,1.783,0,0,0,4.778,6.556V8.333H3v1.778H4.778v1.778H3v1.778H4.778v1.778a1.783,1.783,0,0,0,1.778,1.778H8.333V19h1.778V17.222h1.778V19h1.778V17.222h1.778a1.783,1.783,0,0,0,1.778-1.778V13.667H19V11.889H17.222V10.111Zm-3.556,5.333H6.556V6.556h8.889Z" transform="translate(1 1)" fill="#fff"/></g></g></svg>